<?xml version="1.0" encoding="UTF-8" standalone="no"?>
<!-- Generator: Adobe Illustrator 13.0.2, SVG Export Plug-In . SVG Version: 6.00 Build 14948)  -->

<svg
   xmlns:dc="http://purl.org/dc/elements/1.1/"
   xmlns:cc="http://creativecommons.org/ns#"
   xmlns:rdf="http://www.w3.org/1999/02/22-rdf-syntax-ns#"
   xmlns:svg="http://www.w3.org/2000/svg"
   xmlns="http://www.w3.org/2000/svg"
   xmlns:sodipodi="http://sodipodi.sourceforge.net/DTD/sodipodi-0.dtd"
   xmlns:inkscape="http://www.inkscape.org/namespaces/inkscape"
   version="1.1"
   id="Layer_1"
   x="0px"
   y="0px"
   width="460.315"
   height="99.155998"
   viewBox="0 0 460.315 99.155998"
   enable-background="new 0 0 540 180"
   xml:space="preserve"
   sodipodi:docname="sugarlabs.svg"
   inkscape:version="0.92.0 r15299"><metadata
     id="metadata49"><rdf:RDF><cc:Work
         rdf:about=""><dc:format>image/svg+xml</dc:format><dc:type
           rdf:resource="http://purl.org/dc/dcmitype/StillImage" /><dc:title></dc:title></cc:Work></rdf:RDF></metadata><defs
     id="defs47" /><sodipodi:namedview
     pagecolor="#ffffff"
     bordercolor="#666666"
     borderopacity="1"
     objecttolerance="10"
     gridtolerance="10"
     guidetolerance="10"
     inkscape:pageopacity="0"
     inkscape:pageshadow="2"
     inkscape:window-width="1280"
     inkscape:window-height="975"
     id="namedview45"
     showgrid="false"
     fit-margin-top="0"
     fit-margin-left="0"
     fit-margin-right="0"
     fit-margin-bottom="0"
     inkscape:zoom="1"
     inkscape:cx="270"
     inkscape:cy="90"
     inkscape:window-x="0"
     inkscape:window-y="0"
     inkscape:window-maximized="1"
     inkscape:current-layer="Layer_1" /><rect
     width="540"
     height="180"
     id="rect2"
     x="7.1054274e-15"
     y="-80.844002"
     style="fill:none" /><g
     id="g42"
     transform="translate(-40.015,-40.89)"><g
       id="g8"><path
         d="m 62.894,117.964 c -11.052,0 -21.119,-5.501 -21.119,-11.542 0,-3.158 2.304,-5.631 5.245,-5.631 2.023,0 3.717,1.184 5.513,2.436 2.592,1.809 5.529,3.855 10.652,3.855 5.14,0 8.21,-2.647 8.21,-5.209 0,-3.416 -5.271,-5.607 -10.852,-7.928 -7.8,-3.241 -16.64,-6.917 -16.64,-15.882 0,-10.576 9.934,-16.283 19.282,-16.283 7.889,0 18.894,4.132 18.894,10.861 0,2.526 -1.762,5.244 -5.632,5.244 -2.068,0 -3.556,-1.125 -4.997,-2.21 -1.87,-1.414 -3.992,-3.015 -8.264,-3.015 -1.209,0 -7.242,0.227 -7.242,4.724 0,2.731 4.881,4.615 10.047,6.611 7.773,3.001 17.445,6.735 17.445,16.331 -0.001,12.116 -10.65,17.638 -20.542,17.638 z"
         id="path4"
         inkscape:connector-curvature="0"
         style="fill:#033cd2" /><path
         d="m 63.185,63.542 c 7.066,0 17.133,3.775 17.133,9.099 0,1.839 -1.258,3.484 -3.872,3.484 -3.678,0 -5.131,-5.227 -13.262,-5.227 -4.84,0 -9.002,2.129 -9.002,6.485 0,9.002 27.491,8.036 27.491,22.941 0,10.746 -9.196,15.877 -18.78,15.877 -10.841,0 -19.359,-5.422 -19.359,-9.779 0,-2.322 1.646,-3.871 3.484,-3.871 3.775,0 6.873,6.291 16.166,6.291 6.195,0 9.97,-3.484 9.97,-6.969 0,-10.066 -27.492,-9.486 -27.492,-23.812 0.002,-9.486 8.908,-14.519 17.523,-14.519 m 0,-3.521 c -10.2,0 -21.042,6.323 -21.042,18.041 0,10.142 9.828,14.227 17.724,17.51 4.579,1.903 9.768,4.061 9.768,6.302 0,1.409 -2.297,3.449 -6.45,3.449 -4.569,0 -7.15,-1.801 -9.646,-3.541 -1.939,-1.353 -3.944,-2.75 -6.52,-2.75 -3.928,0 -7.004,3.246 -7.004,7.391 0,7.085 10.691,13.299 22.879,13.299 10.74,0 22.3,-6.069 22.3,-19.396 0,-10.801 -10.733,-14.946 -18.569,-17.973 -3.337,-1.289 -8.922,-3.445 -8.922,-4.968 0,-2.822 4.567,-2.965 5.482,-2.965 3.682,0 5.393,1.292 7.204,2.66 1.593,1.203 3.399,2.567 6.058,2.567 4.283,0 7.392,-2.946 7.392,-7.004 C 83.838,64.515 71.626,60.021 63.185,60.021 Z"
         id="path6"
         inkscape:connector-curvature="0"
         style="fill:#00beff" /></g><g
       id="g14"><path
         d="m 117.488,117.964 c -10.724,0 -22.186,-5.855 -22.186,-22.285 V 68.09 c 0,-3.773 2.419,-6.31 6.021,-6.31 3.6,0 6.019,2.537 6.019,6.31 v 27.3 c 0,7.978 3.224,11.692 10.146,11.692 6.923,0 10.146,-3.715 10.146,-11.692 v -27.3 c 0,-3.773 2.419,-6.31 6.021,-6.31 3.6,0 6.019,2.537 6.019,6.31 v 27.589 c -0.001,16.429 -11.462,22.285 -22.186,22.285 z"
         id="path10"
         inkscape:connector-curvature="0"
         style="fill:#033cd2" /><path
         d="m 133.654,63.542 c 2.613,0 4.259,1.742 4.259,4.549 v 27.588 c 0,15.102 -10.067,20.523 -20.424,20.523 -10.358,0 -20.426,-5.422 -20.426,-20.523 V 68.091 c 0,-2.807 1.646,-4.549 4.26,-4.549 2.613,0 4.258,1.742 4.258,4.549 V 95.39 c 0,8.809 3.872,13.453 11.907,13.453 8.034,0 11.906,-4.645 11.906,-13.453 V 68.091 c 0.001,-2.807 1.647,-4.549 4.26,-4.549 m 0,-3.521 c -4.58,0 -7.779,3.318 -7.779,8.069 v 27.3 c 0,8.753 -4.239,9.934 -8.386,9.934 -4.147,0 -8.387,-1.181 -8.387,-9.934 V 68.091 c 0,-4.751 -3.199,-8.069 -7.778,-8.069 -4.581,0 -7.78,3.318 -7.78,8.069 v 27.588 c 0,17.728 12.37,24.043 23.946,24.043 11.575,0 23.944,-6.315 23.944,-24.043 V 68.091 c -0.001,-4.751 -3.2,-8.07 -7.78,-8.07 z"
         id="path12"
         inkscape:connector-curvature="0"
         style="fill:#00beff" /></g><g
       id="g20"><path
         d="m 175.375,138.289 c -8.494,0 -21.508,-4.995 -21.508,-11.15 0,-2.758 1.672,-5.729 5.343,-5.729 2.021,0 3.766,1.074 5.785,2.32 2.802,1.726 5.98,3.681 11.057,3.681 10.828,0 12.216,-9.427 12.274,-13.815 -3.037,2.816 -7.039,4.368 -11.498,4.368 -16.027,0 -24.413,-14.132 -24.413,-28.092 0,-13.958 8.386,-28.09 24.413,-28.09 4.428,0 8.694,1.906 11.688,4.32 0.654,-2.638 2.951,-4.32 6.123,-4.32 2.776,0 5.729,2.078 5.729,5.924 v 44.235 c -0.001,16.004 -9.813,26.348 -24.993,26.348 z m 1.452,-65.629 c -9.133,0 -12.374,9.271 -12.374,17.21 0,7.939 3.24,17.21 12.374,17.21 9.13,0 12.371,-9.271 12.371,-17.21 0,-7.939 -3.24,-17.21 -12.371,-17.21 z"
         id="path16"
         inkscape:connector-curvature="0"
         style="fill:#033cd2" /><path
         d="m 194.637,63.542 c 1.646,0 3.969,1.162 3.969,4.163 v 44.236 c 0,15.295 -9.293,24.588 -23.232,24.588 -8.809,0 -19.747,-5.033 -19.747,-9.389 0,-1.742 0.871,-3.969 3.582,-3.969 3.872,0 7.647,6 16.843,6 10.842,0 14.037,-8.518 14.037,-15.875 v -4.453 h -0.194 c -2.614,4.453 -7.26,7.359 -13.068,7.359 -14.52,0 -22.651,-12.682 -22.651,-26.332 0,-13.648 8.131,-26.329 22.651,-26.329 5.517,0 10.841,3.388 13.068,6.486 h 0.194 v -2.323 c -0.001,-3.001 2.225,-4.162 4.548,-4.162 m -17.811,45.301 c 10.454,0 14.133,-10.26 14.133,-18.972 0,-8.711 -3.679,-18.972 -14.133,-18.972 -10.455,0 -14.133,10.261 -14.133,18.972 0,8.712 3.679,18.972 14.133,18.972 m 17.811,-48.822 c -3.035,0 -5.485,1.289 -6.859,3.399 -3.083,-1.981 -6.96,-3.399 -10.952,-3.399 -17.182,0 -26.171,15.016 -26.171,29.849 0,14.834 8.99,29.851 26.171,29.851 3.423,0 6.604,-0.83 9.352,-2.385 -0.847,4.074 -3.355,8.314 -10.127,8.314 -4.58,0 -7.531,-1.818 -10.135,-3.422 -2.153,-1.326 -4.188,-2.578 -6.708,-2.578 -4.115,0 -7.102,3.149 -7.102,7.488 0,7.488 13.898,12.908 23.267,12.908 7.881,0 14.584,-2.642 19.382,-7.641 4.821,-5.021 7.37,-12.1 7.37,-20.467 V 67.704 c 0.001,-4.99 -3.857,-7.683 -7.488,-7.683 z m -17.811,45.302 c -10.101,0 -10.613,-12.872 -10.613,-15.453 0,-2.581 0.512,-15.452 10.613,-15.452 10.101,0 10.613,12.872 10.613,15.452 0,2.58 -0.512,15.453 -10.613,15.453 z"
         id="path18"
         inkscape:connector-curvature="0"
         style="fill:#00beff" /></g><g
       id="g26"><path
         d="m 256.106,117.964 c -2.625,0 -5.28,-1.728 -5.68,-5.045 -3.49,3.315 -7.752,5.045 -12.52,5.045 -16.024,0 -24.411,-14.132 -24.411,-28.093 0,-13.959 8.386,-28.091 24.411,-28.091 4.753,0 8.743,1.484 12.563,4.743 0.52,-3.119 3.092,-4.743 5.637,-4.743 2.776,0 5.728,2.076 5.728,5.924 v 44.334 c 0,3.85 -2.952,5.926 -5.728,5.926 z m -18.2,-45.304 c -9.131,0 -12.372,9.271 -12.372,17.211 0,7.94 3.241,17.211 12.372,17.211 9.133,0 12.374,-9.271 12.374,-17.211 0,-7.94 -3.24,-17.211 -12.374,-17.211 z"
         id="path22"
         inkscape:connector-curvature="0"
         style="fill:#033cd2" /><path
         d="m 256.106,63.542 c 1.646,0 3.968,1.162 3.968,4.163 v 44.334 c 0,3.002 -2.322,4.164 -3.968,4.164 -1.743,0 -3.97,-1.162 -3.97,-4.164 v -3.582 h -0.193 c -3.678,5.227 -8.518,7.746 -14.036,7.746 -14.521,0 -22.651,-12.682 -22.651,-26.332 0,-13.648 8.13,-26.329 22.651,-26.329 5.905,0 10.067,2.517 14.036,6.873 h 0.193 v -2.71 c 0,-3.002 2.227,-4.163 3.97,-4.163 m -18.199,45.301 c 10.455,0 14.134,-10.26 14.134,-18.972 0,-8.711 -3.679,-18.972 -14.134,-18.972 -10.455,0 -14.133,10.261 -14.133,18.972 0,8.712 3.678,18.972 14.133,18.972 m 18.199,-48.822 c -2.478,0 -5.062,1.254 -6.454,3.637 -3.564,-2.488 -7.349,-3.637 -11.746,-3.637 -17.181,0 -26.171,15.016 -26.171,29.849 0,14.834 8.99,29.851 26.171,29.851 4.33,0 8.272,-1.291 11.662,-3.785 1.37,2.479 4.009,3.785 6.538,3.785 3.63,0 7.488,-2.692 7.488,-7.684 V 67.704 c 0,-4.99 -3.858,-7.683 -7.488,-7.683 z m -18.199,45.302 c -10.101,0 -10.613,-12.872 -10.613,-15.453 0,-2.581 0.512,-15.452 10.613,-15.452 10.102,0 10.614,12.872 10.614,15.452 0,2.58 -0.512,15.453 -10.614,15.453 z"
         id="path24"
         inkscape:connector-curvature="0"
         style="fill:#00beff" /></g><g
       id="g32"><path
         d="m 282.824,117.962 c -3.601,0 -6.021,-2.537 -6.021,-6.312 V 68.092 c 0,-3.774 2.42,-6.312 6.021,-6.312 3.287,0 5.59,2.118 5.964,5.359 2.535,-2.849 6.101,-5.359 10.104,-5.359 3.768,0 6.503,2.572 6.503,6.117 0,2.326 -1.173,5.32 -6.759,6.375 -2.963,0.514 -9.795,2.787 -9.795,12.889 v 24.489 c 0,3.775 -2.419,6.312 -6.017,6.312 z"
         id="path28"
         inkscape:connector-curvature="0"
         style="fill:#033cd2" /><path
         d="m 298.891,63.542 c 3,0 4.744,1.936 4.744,4.355 0,2.42 -1.744,3.97 -5.326,4.647 -5.033,0.871 -11.229,4.646 -11.229,14.618 v 24.49 c 0,2.807 -1.645,4.551 -4.258,4.551 -2.615,0 -4.26,-1.744 -4.26,-4.551 V 68.091 c 0,-2.807 1.645,-4.549 4.26,-4.549 2.613,0 4.258,1.742 4.258,4.549 v 4.356 h 0.195 c 1.934,-3.968 6.679,-8.905 11.616,-8.905 m 0,-3.521 c -3.516,0 -6.71,1.665 -9.284,3.875 -1.285,-2.396 -3.728,-3.875 -6.784,-3.875 -4.58,0 -7.779,3.318 -7.779,8.069 v 43.561 c 0,4.752 3.199,8.07 7.779,8.07 4.579,0 7.777,-3.318 7.777,-8.07 v -24.49 c 0,-8.45 5.206,-10.612 8.31,-11.149 0.018,-0.003 0.035,-0.006 0.054,-0.01 7.128,-1.347 8.191,-5.657 8.191,-8.105 0,-4.564 -3.475,-7.876 -8.264,-7.876 z"
         id="path30"
         inkscape:connector-curvature="0"
         style="fill:#00beff" /></g><path
       d="m 324.831,111.651 c 0,2.807 -1.645,4.551 -4.258,4.551 -2.613,0 -4.26,-1.744 -4.26,-4.551 V 45.44 c 0,-2.807 1.646,-4.55 4.26,-4.55 2.614,0 4.258,1.743 4.258,4.55 z"
       id="path34"
       inkscape:connector-curvature="0"
       style="fill:#969696" /><path
       d="m 385.913,112.038 c 0,3.002 -2.324,4.164 -3.969,4.164 -1.742,0 -3.969,-1.162 -3.969,-4.164 v -3.582 h -0.193 c -3.68,5.227 -8.52,7.746 -14.037,7.746 -14.52,0 -22.65,-12.682 -22.65,-26.332 0,-13.648 8.131,-26.329 22.65,-26.329 5.906,0 10.066,2.517 14.037,6.873 h 0.193 v -2.71 c 0,-3.001 2.227,-4.163 3.969,-4.163 1.645,0 3.969,1.162 3.969,4.163 z m -22.168,-3.195 c 10.455,0 14.133,-10.26 14.133,-18.972 0,-8.711 -3.678,-18.972 -14.133,-18.972 -10.453,0 -14.133,10.261 -14.133,18.972 0,8.712 3.68,18.972 14.133,18.972 z"
       id="path36"
       inkscape:connector-curvature="0"
       style="fill:#969696" /><path
       d="m 404.788,45.44 c 0,-2.807 1.646,-4.55 4.26,-4.55 2.614,0 4.26,1.743 4.26,4.55 v 25.071 h 0.191 c 2.227,-3.195 6.971,-6.97 13.746,-6.97 13.941,0 21.975,12.681 21.975,26.329 0,13.65 -8.033,26.332 -21.975,26.332 -6.775,0 -11.324,-2.422 -13.746,-7.068 h -0.191 v 2.518 c 0,2.807 -1.646,4.551 -4.26,4.551 -2.614,0 -4.26,-1.744 -4.26,-4.551 z m 21.781,63.403 c 10.453,0 14.131,-10.26 14.131,-18.972 0,-8.711 -3.678,-18.972 -14.131,-18.972 -10.455,0 -14.135,10.261 -14.135,18.972 0,8.712 3.68,18.972 14.135,18.972 z"
       id="path38"
       inkscape:connector-curvature="0"
       style="fill:#969696" /><path
       d="m 481.84,63.542 c 7.066,0 17.135,3.775 17.135,9.099 0,1.839 -1.26,3.484 -3.873,3.484 -3.678,0 -5.131,-5.227 -13.262,-5.227 -4.84,0 -9.002,2.129 -9.002,6.485 0,9.002 27.492,8.036 27.492,22.941 0,10.746 -9.197,15.877 -18.779,15.877 -10.842,0 -19.361,-5.422 -19.361,-9.779 0,-2.322 1.645,-3.871 3.484,-3.871 3.775,0 6.873,6.291 16.166,6.291 6.195,0 9.971,-3.484 9.971,-6.969 0,-10.066 -27.492,-9.486 -27.492,-23.812 0,-9.486 8.906,-14.519 17.521,-14.519 z"
       id="path40"
       inkscape:connector-curvature="0"
       style="fill:#969696" /></g></svg>